inDegrees=yes
name=ik_OwnShooting_orientations2.mot
DataType=double
version=3
OpenSimVersion=4.3-2021-08-27-4bc7ad9
endheader
time	pelvis_tilt	pelvis_list	pelvis_rotation	pelvis_tx	pelvis_ty	pelvis_tz	hip_flexion_r	hip_adduction_r	hip_rotation_r	knee_angle_r	knee_angle_r_beta	ankle_angle_r	subtalar_angle_r	mtp_angle_r	hip_flexion_l	hip_adduction_l	hip_rotation_l	knee_angle_l	knee_angle_l_beta	ankle_angle_l	subtalar_angle_l	mtp_angle_l	lumbar_extension	lumbar_bending	lumbar_rotation	arm_flex_r	arm_add_r	arm_rot_r	elbow_flex_r	pro_sup_r	wrist_flex_r	wrist_dev_r	arm_flex_l	arm_add_l	arm_rot_l	elbow_flex_l	pro_sup_l	wrist_flex_l	wrist_dev_l
7.28	8.090995273398535	8.120530141134518	63.06640244006735	0	0.9399999999999999	0	45.00000011885599	-9.999999988573334	0	60.00014061959992	1.047200005471609	-4.999999851047217	0	0	45.00000011885599	-9.999999988573334	0	60.00014061959992	1.047200005471609	-4.999999851047217	0	0	-7.945821666801173	1.334436302576127	-0.4961880720067979	57.92205354144649	16.43905952681803	-71.38112816147675	127.1371945985664	45.00000025534056	0	0	0	-14.99999715081875	0	75.00017584615365	45.00000025534056	0	0
7.29	8.090351157521859	8.128487267901731	63.0507878968555	0	0.9399999999999999	0	45.00000011885605	-9.999999988573334	0	60.00014061960017	1.047200005471614	-4.999999851047217	0	0	45.00000011885605	-9.999999988573334	0	60.00014061960017	1.047200005471614	-4.999999851047217	0	0	-7.949888833613281	1.33921907452694	-0.4560541794760495	69.9126828116303	16.58280916423763	-74.3165792929162	149.9874550313495	45.00000025534056	0	0	0	-14.99999716850943	0	75.00017584615362	45.00000025534056	0	0
7.3	8.111311716535758	8.122040789946926	63.03520182113864	0	0.9399999999999999	0	45.00000011885611	-9.999999988573334	0	60.00014061960041	1.047200005471618	-4.999999851047217	0	0	45.00000011885611	-9.999999988573334	0	60.00014061960041	1.047200005471618	-4.999999851047217	0	0	-7.938781984680951	1.352005013945037	-0.4705208399142279	62.25138576976877	18.96522988293975	-75.02529474777181	149.8813921744217	45.00000025534056	0	0	0	-14.99999718691846	0	75.00017584615355	45.00000025534056	0	0
7.31	8.115075237131386	8.144655048679793	62.99027475827884	0	0.9399999999999999	0	45.00000011885642	-9.999999988573334	0	60.00014061960163	1.047200005471639	-4.999999851047217	0	0	45.00000011885642	-9.999999988573334	0	60.00014061960163	1.047200005471639	-4.999999851047217	0	0	-7.957149920604118	1.330932472273315	-0.4309873969555398	49.41474276063076	2.870777999858793	-57.00214754366647	106.99082199497	45.00000025534056	0	0	0	-14.99999728564092	0	75.00017584615321	45.00000025534056	0	0
7.32	8.111479788666523	8.129907271004249	63.00847683313433	0	0.9399999999999999	0	45.00000011885668	-9.999999988573334	0	60.00014061960263	1.047200005471656	-4.999999851047217	0	0	45.00000011885668	-9.999999988573334	0	60.00014061960263	1.047200005471656	-4.999999851047217	0	0	-7.940715610479182	1.340229457515341	-0.4430818397594824	46.36086895852725	-6.338042256432693	-40.17640881891726	69.25217276976066	45.00000025534056	0	0	0	-14.99999736595119	0	75.0001758461529	45.00000025534056	0	0
7.33	8.099666398627763	8.093094480689887	63.02680661591043	0	0.9399999999999999	0	45.00000011885693	-9.999999988573334	0	60.00014061960361	1.047200005471673	-4.999999851047217	0	0	45.00000011885693	-9.999999988573334	0	60.00014061960361	1.047200005471673	-4.999999851047217	0	0	-7.904749103838727	1.353483736466874	-0.4836514508116127	49.5940678593199	7.012232174109845	-15.55075946916001	26.66798300358132	45.00000025534056	0	0	0	-14.99999744432605	0	75.00017584615264	45.00000025534056	0	0
7.34	8.095893130628237	8.092599656439619	63.00902774660808	0	0.9399999999999999	0	45.00000011885699	-9.999999988573334	0	60.0001406196038	1.047200005471677	-4.999999851047217	0	0	45.00000011885699	-9.999999988573334	0	60.0001406196038	1.047200005471677	-4.999999851047217	0	0	-7.912966130695116	1.344732422522353	-0.4433436735770667	40.04327388868217	31.60882445457893	-1.180322381098275	0.01464875159498661	45.00000025534056	0	0	0	-14.99999746436051	0	75.00017584615256	45.00000025534056	0	0
7.35	8.09387034580455	8.073871626875047	63.01723677439626	0	0.9399999999999999	0	45.00000011885699	-9.999999988573334	0	60.00014061960383	1.047200005471677	-4.999999851047217	0	0	45.00000011885699	-9.999999988573334	0	60.00014061960383	1.047200005471677	-4.999999851047217	0	0	-7.884340849945399	1.370557923191196	-0.47402905169817	48.09333598637581	28.02378126725937	-7.750064557141358	0.05655687872021187	45.00000025534056	0	0	0	-14.99999747162295	0	75.00017584615259	45.00000025534056	0	0
7.36	8.107760090660857	8.082357558666502	63.00939525445795	0	0.9399999999999999	0	45.00000011885709	-9.999999988573334	0	60.0001406196042	1.047200005471684	-4.999999851047217	0	0	45.00000011885709	-9.999999988573334	0	60.0001406196042	1.047200005471684	-4.999999851047217	0	0	-7.890233813151988	1.385943140881774	-0.4689821645820429	50.68446642471872	7.532728741118487	-22.50262798132908	25.2419978224397	45.00000025534056	0	0	0	-14.99999750645358	0	75.00017584615252	45.00000025534056	0	0
7.37	8.124243894704104	8.09835857508943	63.0162738612843	0	0.9399999999999999	0	45.00000011885712	-9.999999988573334	0	60.00014061960439	1.047200005471687	-4.999999851047217	0	0	45.00000011885712	-9.999999988573334	0	60.00014061960439	1.047200005471687	-4.999999851047217	0	0	-7.929117322269023	1.408127516980576	-0.447255243361924	48.91437482742515	-2.730942896409193	-34.82961526629601	46.28439627674071	45.00000025534056	0	0	0	-14.99999752379083	0	75.00017584615249	45.00000025534056	0	0
7.38	8.137864769308777	8.09902239215717	62.99812147988802	0	0.9399999999999999	0	45.00000011885724	-9.999999988573334	0	60.00014061960496	1.047200005471697	-4.999999851047217	0	0	45.00000011885724	-9.999999988573334	0	60.00014061960496	1.047200005471697	-4.999999851047217	0	0	-7.896059480776199	1.418318229062812	-0.4548564649679596	47.95535924260501	-6.273577407139138	-39.26357591591673	67.06296537035219	45.00000025534056	0	0	0	-14.99999756939641	0	75.00017584615232	45.00000025534056	0	0
7.39	8.14710931870038	8.125142329144929	62.97926997223862	0	0.9399999999999999	0	45.00000011885729	-9.999999988573334	0	60.00014061960518	1.047200005471701	-4.999999851047217	0	0	45.00000011885729	-9.999999988573334	0	60.00014061960518	1.047200005471701	-4.999999851047217	0	0	-7.920506658333344	1.42875438565431	-0.4094198657180822	49.4279908852417	-1.678764658607219	-57.54640373034322	105.0139789904411	45.00000025534056	0	0	0	-14.99999758794866	0	75.00017584615227	45.00000025534056	0	0
